<?xml version="1.0" encoding="UTF-8"?>
<!DOCTYPE svg PUBLIC "-//W3C//DTD SVG 1.1//EN" "http://www.w3.org/Graphics/SVG/1.1/DTD/svg11.dtd">
<!-- Creator: CorelDRAW 2020 (64-Bit) -->
<svg xmlns="http://www.w3.org/2000/svg" xml:space="preserve" width="2.0275in" height="1.75083in" version="1.1" style="shape-rendering:geometricPrecision; text-rendering:geometricPrecision; image-rendering:optimizeQuality; fill-rule:evenodd; clip-rule:evenodd"
viewBox="0 0 3841.84 3317.6"
 xmlns:xlink="http://www.w3.org/1999/xlink"
 xmlns:xodm="http://www.corel.com/coreldraw/odm/2003">
 <defs>
  <style type="text/css">
   <![CDATA[
    .fil1 {fill:white}
    .fil2 {fill:#4BD3A5;fill-opacity:0.721569}
    .fil0 {fill:#6699FF;fill-opacity:0.721569}
   ]]>
  </style>
 </defs>
 <g id="Layer_x0020_1">
  <metadata id="CorelCorpID_0Corel-Layer"/>
  <path class="fil0" d="M1301.14 715.31c718.6,0 1301.14,582.54 1301.14,1301.14 0,718.6 -582.54,1301.14 -1301.14,1301.14 -718.6,0 -1301.14,-582.54 -1301.14,-1301.14 0,-718.6 582.54,-1301.14 1301.14,-1301.14z"/>
  <g id="_2650408130288">
   <path class="fil1" d="M2564.97 2451.6l-34.26 -231.34c-4.04,-24.33 -11.21,-57.41 -11.71,-80.23 47.15,-22.62 137.15,-42.86 245.16,-97.03l165.08 -90.29c17.7,-10.51 36.34,-27.44 54.53,-32.29 -2.47,29.66 -8.62,77.19 -10.12,107.35 -1.72,34.73 -3.19,74.74 -8.03,109.45 -7.35,52.85 -4.01,51.27 -41.03,76.44 -26.05,17.7 -48.87,32.41 -73.62,48.96l-286.02 188.98zm-745.7 -919.36c0,-45.61 12.23,-84.49 22.44,-125.67l33.74 -109.27 670.36 667.81c-36.55,18.25 -184.23,57.46 -236.22,57.46 -30.22,0 -107.45,-89.58 -131.52,-113.64l-306.45 -306.45c-16.73,-16.73 -52.36,-42.02 -52.36,-70.23zm-117.47 -209.41c-39.19,-0.87 -272.85,-45.97 -311.56,-45.97l235.9 -356.58c23.89,-35.65 21.65,-36.63 74.06,-43.41 28.17,-3.65 76.31,-7.59 108.86,-8.62 32.49,-1.01 80.9,-7.59 112.37,-10.21l-62.92 105.62c-51.5,93.24 -100.64,192.67 -134.36,294.67 -7.09,21.47 -13.98,47.06 -22.34,64.49zm1001.07 577.14l-762.29 -759.75c49.6,-90.89 60.52,-115.3 119.76,-204.56 21.06,-31.74 42.66,-62.69 66.56,-91.77l109.91 -130.14c30.03,-29.83 53.11,-62.59 80.05,-83.39l85.95 -77.49c13.89,-13.23 29.27,-25.8 43.96,-37.76 310.36,-252.76 692.16,-361.91 1098.84,-361.91 29.77,0 106.27,2.99 121.67,16.24 19.93,17.16 21.35,89.47 21.35,121.67 0,231.99 -43.36,497.18 -119.66,687.32 -58.61,146.06 -107.39,238.77 -202.11,364.82l-190.49 218.12c-18.67,15.58 -25.97,21.22 -43.19,38.52 -16.92,17.01 -24.33,23.91 -42.89,38.84 -166.84,134.32 -184.08,153.64 -387.42,261.23zm-653.76 -1205.37l-323.93 23.38c-104.01,15.49 -147.49,-6.36 -231.77,120.65 -46.95,70.74 -90.85,138.83 -137.91,209.41 -29.83,44.76 -128.7,175.52 -128.7,223.71 0,171.66 139.7,155.66 302.08,183.13l137.16 21.17c-1.87,22.5 -5.11,12.47 -5.11,51.08 0,104.14 67.82,152.08 121.31,205.58l326.87 326.87c68.08,68.08 100.25,121.31 220.9,121.31 17.61,0 19.78,-3.78 35.76,-5.11l20.45 132.78c24.82,147.59 12.91,306.47 173.63,306.47 63.69,0 173.69,-88.57 227.79,-124.63 72.33,-48.22 140.71,-92.24 212.47,-139.94 135.86,-90.32 113.06,-141.33 131.01,-308.23l16.08 -249.5 70.33 -57.36c58.2,-57.67 110.92,-103.76 165.85,-166.13 12.62,-14.33 16.55,-21.08 30.75,-35.65l116.12 -149.47c198.64,-280.96 311.57,-670.19 311.57,-1011.28l0 -153.22c0,-129.37 -90.48,-219.63 -219.63,-219.63l-11.73 0c-244.33,0.04 -359.37,2.05 -604.29,63.27 -159.72,39.92 -244.93,79.18 -383.35,147.83 -103.73,51.44 -224.81,141.31 -311.67,214.4 -7.24,6.09 -9.12,8.74 -16.2,14.46l-216.52 217.62c-14.92,15.99 -17.51,19.36 -29.36,37.04z"/>
   <path class="fil1" d="M2789.7 827.42c0,-66.24 27.05,-122.46 59.96,-159.65 50.81,-57.41 115.66,-70.18 190.31,-70.18 98.67,0 204.3,105.63 204.3,204.3 0,71.15 -11.94,139.91 -67.78,187.6 -171.56,146.52 -386.79,12.84 -386.79,-162.06zm612.9 5.1c0,-339 -367.77,-495.64 -607.84,-321.81 -123.6,89.49 -185.84,239.87 -152,397.24 16.4,76.29 52.06,133.6 104.8,186.33 52,52.01 98.9,82.46 182.27,103.76 151.56,38.73 307.18,-26.15 399.15,-148.01 37.58,-49.78 73.62,-132.6 73.62,-217.51z"/>
   <path class="fil1" d="M1226.8 2528.21c0,60.87 25.96,86.83 86.83,86.83 32.88,0 59.17,-36.19 77.89,-54.91l342.2 -342.2c28.51,-28.51 126.41,-111.99 126.41,-149.4 0,-60.87 -25.95,-86.82 -86.82,-86.82 -37.34,0 -118.72,95.72 -146.84,123.85l-342.2 342.2c-19.11,19.11 -57.46,47.13 -57.46,80.44z"/>
   <path class="fil1" d="M1226.8 2073.64c0,54.09 33.5,81.72 86.83,81.72 39.07,0 176.73,-153.75 210.68,-187.7 20.52,-20.52 86.52,-81.31 97.73,-101.49 27.68,-49.86 4.07,-114.3 -78.57,-114.3 -38.09,0 -139.43,116.44 -169.82,146.84 -33.12,33.12 -146.84,131.15 -146.84,174.93z"/>
   <path class="fil1" d="M1686.48 2528.21c0,26.48 2.88,44.27 19.39,62.33 13.46,14.72 27.34,22.13 41.08,24.5l20.58 0c39.43,-6.38 75.36,-46.6 93.89,-65.12l163.44 -163.44c36.3,-36.31 65.12,-48.27 65.12,-108.54 0,-49.65 -66.23,-88.54 -114.77,-58.63 -18.54,11.43 -171.74,168.93 -200.61,197.81 -23.01,23.01 -88.1,74.53 -88.1,111.09z"/>
  </g>
  <path class="fil2" d="M532.56 2307c279.08,0 505.3,226.23 505.3,505.3 0,279.07 -226.23,505.3 -505.3,505.3 -279.07,0 -505.3,-226.23 -505.3,-505.3 0,-279.08 226.23,-505.3 505.3,-505.3z"/>
 </g>
</svg>
