<?xml version="1.0" encoding="UTF-8"?>
<!DOCTYPE svg PUBLIC "-//W3C//DTD SVG 1.1//EN" "http://www.w3.org/Graphics/SVG/1.1/DTD/svg11.dtd">
<!-- Creator: CorelDRAW 2020 (64-Bit) -->
<svg xmlns="http://www.w3.org/2000/svg" xml:space="preserve" width="2.06413in" height="1.78018in" version="1.1" style="shape-rendering:geometricPrecision; text-rendering:geometricPrecision; image-rendering:optimizeQuality; fill-rule:evenodd; clip-rule:evenodd"
viewBox="0 0 791.45 682.57"
 xmlns:xlink="http://www.w3.org/1999/xlink"
 xmlns:xodm="http://www.corel.com/coreldraw/odm/2003">
 <defs>
  <style type="text/css">
   <![CDATA[
    .fil1 {fill:white}
    .fil2 {fill:#4BD3A5;fill-opacity:0.721569}
    .fil0 {fill:#6699FF;fill-opacity:0.721569}
   ]]>
  </style>
 </defs>
 <g id="Layer_x0020_1">
  <metadata id="CorelCorpID_0Corel-Layer"/>
  <path class="fil0" d="M263.29 156c145.41,0 263.29,117.88 263.29,263.29 0,145.41 -117.88,263.29 -263.29,263.29 -145.41,0 -263.29,-117.88 -263.29,-263.29 0,-145.41 117.88,-263.29 263.29,-263.29z"/>
  <g id="_2650567297584">
   <path class="fil1" d="M288.76 383.8l52.15 0 0 118.89 -52.15 0 0 -118.89zm290.98 85.52l-206.5 0 0 -52.15 36.5 0c19.35,0 15.02,-18.86 19.48,-29.54 4.32,-10.35 15.3,-20.52 29.54,-20.52l112.64 0c19.35,0 23.24,28.83 3.74,33.98 -19.09,5.04 -77.78,-10.72 -77.78,15.04 0,11.08 6.7,17.73 16.69,17.73l56.32 0c18.18,0 28.66,-8.32 39.37,-19.03 11.17,-11.18 49.7,-52.08 60.38,-57.47 11.5,-5.81 21.01,-7.99 35.42,-5.47 5.33,0.93 7.72,2.79 11.89,3.76 -1.08,4.03 -4.28,5.85 -7.04,8.61l-86.04 86.04c-12.68,12.68 -19.57,19.03 -44.59,19.03zm35.46 -105.34c-2.55,-4.81 -3.18,-6.58 -6.68,-11.05 -3.03,-3.87 -5.73,-6.29 -9.78,-8.99 -7.39,-4.93 -15.44,-9.16 -27.34,-9.16l-111.59 0c-16.99,0 -29.21,5.93 -41.13,15.19 -5.56,4.31 -9.37,9.38 -13.12,15.04 -2.63,3.97 -8.19,13.69 -8.33,19.83l-23.99 0c0,-11.51 2.46,-33.37 -16.69,-33.37l-82.39 0c-9.13,0 -16.69,6.32 -16.69,15.65l0 153.31c0,6.4 7.16,13.56 13.56,13.56l87.6 0c7.68,0 14.6,-7.8 14.6,-18.77l0 -14.6 219.02 0c21.12,0 38.52,-11.93 51.89,-25.29l97.51 -97.51c9.94,-9.94 26.87,-21.7 8.34,-38.06 -28.79,-25.41 -72.86,-27.87 -103.67,-5.13 -11.22,8.28 -24.37,24.85 -31.12,29.37z"/>
   <path class="fil1" d="M423.29 154.35c0,-41.85 13.21,-69.62 42.99,-95.72 6.92,-6.06 18.54,-13.16 26.89,-16.91 6.33,-2.84 14.61,-5.64 21.95,-7.25 54.79,-12.06 108.13,14.98 132.07,62.84 15.91,31.8 15.91,72.89 0,104.69 -6.89,13.77 -13.97,22.38 -24.45,32.92 -9.34,9.39 -21.27,17.33 -34.37,22.99 -30.82,13.31 -63.51,13.38 -94.47,0 -39.95,-17.25 -70.61,-59.82 -70.61,-103.56zm110.02 -154.35l15.1 0c20.22,1 40.22,6 58.09,14.95 18.42,9.23 27.52,15.9 42.33,30.68 63.53,63.43 54.81,170.12 -19.32,225.25 -3.48,2.59 -7.74,5.54 -11.23,7.54 -30.36,17.44 -49.56,20.9 -85.48,20.9 -37.76,0 -74.43,-20.8 -99.86,-46.15 -22.16,-22.09 -41.98,-60.06 -41.98,-104.03 0,-49.02 24.12,-91.9 62.57,-120.99 7.28,-5.51 14.44,-9.29 22.95,-13.55 17.49,-8.78 37.04,-13.62 56.83,-14.6z"/>
   <path class="fil1" d="M525.5 84.48c-15.71,0.35 -33.37,20.13 -33.37,35.46 0,10.93 0.3,19.97 7.59,28.92 4.28,5.26 9.1,9.93 15.34,12.82 17.46,8.09 43.82,-1.71 43.82,12.5 0,12.73 -14.45,9.43 -27.14,9.36 -6.74,-0.04 -11.59,0.67 -15.64,3.14 -9.33,5.69 -9.23,18.32 -2.81,24.75 3.01,3.01 6.53,4.47 12.21,4.47 0,23.63 31.29,19.45 31.29,3.13l0 -4.17c14.62,-0.33 33.37,-17.83 33.37,-36.5l0 -7.3c0,-15.11 -12.51,-28.56 -22.93,-33.39 -18.71,-8.67 -43.82,2.65 -43.82,-13.54 0,-2.86 2.84,-8.08 9.31,-8.42 19.44,-1.03 40.75,5.84 40.75,-18.69 0,-7.93 -8.09,-13.56 -16.69,-13.56 0,-18.66 -19.54,-20.2 -27.33,-11.68 -3.01,3.29 -3.96,6.62 -3.96,12.73z"/>
   <path class="fil1" d="M726.79 80.31c0,8.95 2.74,16.08 12.38,17.94 8.95,1.73 30.33,-11.08 39.08,-15.49 8.32,-4.19 12.26,-9.61 13.19,-14.83l0 -4.99c-1.27,-7.14 -7.88,-12.87 -15.64,-12.87 -6.73,0 -21.8,8.82 -27.81,11.82 -7.6,3.8 -21.21,8.1 -21.21,18.43z"/>
   <path class="fil1" d="M290.84 65.71c0,13.12 11.85,15.84 27.47,23.64 10.11,5.06 23.56,15.25 33.64,4.09 4.22,-4.67 5.05,-11.41 2.58,-17.33 -2.72,-6.5 -7.66,-7.95 -13.96,-11.1 -6.77,-3.38 -26.97,-14.95 -34.07,-14.95 -8.9,0 -15.64,6.74 -15.64,15.64z"/>
   <path class="fil1" d="M290.84 233.62c0,8.9 6.74,15.65 15.64,15.65 7.28,0 30.95,-13.43 38.26,-17.02 6.83,-3.35 11.38,-7.7 11.18,-16.22 -0.28,-11.91 -9.2,-14.74 -18.15,-14.74 -4.07,0 -22.71,10.31 -27.12,12.51 -8.74,4.37 -19.82,7.04 -19.82,19.82z"/>
   <path class="fil1" d="M726.79 215.89c0,13.82 8.26,15.08 21.21,21.55 6.01,3.01 21.08,11.82 27.81,11.82 11.65,0 15.64,-8.21 15.64,-17.73 0,-10.21 -13.03,-14.34 -20.51,-18.08 -10.2,-5.1 -20.43,-12.17 -29.55,-12.17 -8.34,0 -14.6,6.26 -14.6,14.6z"/>
  </g>
  <path class="fil2" d="M113.28 478.08c56.47,0 102.25,45.78 102.25,102.25 0,56.47 -45.78,102.25 -102.25,102.25 -56.47,0 -102.25,-45.78 -102.25,-102.25 0,-56.47 45.78,-102.25 102.25,-102.25z"/>
 </g>
</svg>
