<?xml version="1.0" encoding="UTF-8"?>
<!DOCTYPE svg PUBLIC "-//W3C//DTD SVG 1.1//EN" "http://www.w3.org/Graphics/SVG/1.1/DTD/svg11.dtd">
<!-- Creator: CorelDRAW 2020 (64-Bit) -->
<svg xmlns="http://www.w3.org/2000/svg" xml:space="preserve" width="1.9928in" height="1.59897in" version="1.1" style="shape-rendering:geometricPrecision; text-rendering:geometricPrecision; image-rendering:optimizeQuality; fill-rule:evenodd; clip-rule:evenodd"
viewBox="0 0 527.86 423.54"
 xmlns:xlink="http://www.w3.org/1999/xlink"
 xmlns:xodm="http://www.corel.com/coreldraw/odm/2003">
 <defs>
  <style type="text/css">
   <![CDATA[
    .fil1 {fill:white}
    .fil2 {fill:#4BD3A5;fill-opacity:0.721569}
    .fil0 {fill:#6699FF;fill-opacity:0.721569}
   ]]>
  </style>
 </defs>
 <g id="Layer_x0020_1">
  <metadata id="CorelCorpID_0Corel-Layer"/>
  <path class="fil0" d="M181.89 59.77c100.45,0 181.89,81.43 181.89,181.89 0,100.45 -81.43,181.89 -181.89,181.89 -100.45,0 -181.89,-81.43 -181.89,-181.89 0,-100.45 81.43,-181.89 181.89,-181.89z"/>
  <g id="_2650528275056">
   <path class="fil1" d="M248.46 291.24c0,-4.72 2.63,-6.97 7.66,-6.97l117.75 0c0,7.98 1.31,9.3 1.39,13.24l-119.15 0c-4.35,0 -7.66,-1.99 -7.66,-6.27zm245.95 6.27l-86.4 0c-5.65,0 -11.15,-4.13 -11.15,-9.06l0 -188.82c0,-4.96 5.89,-9.06 11.15,-9.06l86.4 0c6.47,0 11.15,5.42 11.15,11.84l0 183.25c0,6.42 -4.68,11.84 -11.15,11.84zm-194.39 -68.98l73.86 0 0 32.75 -77.34 0c0,-5.61 0.93,-10.92 1.69,-16.42 0.72,-5.24 1.79,-11.11 1.79,-16.33zm73.86 -127.51l0 104.51 -172.1 0c-5.6,0 -8.36,-5.27 -8.36,-11.15l0 -160.95c0,-6.2 4.25,-10.45 10.45,-10.45l268.25 0c5.8,0 9.75,3.96 9.75,9.75l0 34.84 -68.28 0c-17.17,0 -28.49,4.91 -35.94,18.4 -1.99,3.59 -3.77,9.75 -3.77,15.04zm-202.76 -71.07l0 167.92c0,16.52 14.76,30.66 31.35,30.66l74.55 0c0,5.61 -0.93,10.92 -1.69,16.42 -0.73,5.24 -1.79,11.11 -1.79,16.33 -18.43,0 -35.45,-1.33 -44.56,16.05 -8.29,15.8 -1,35.25 17.61,41.55 3.58,1.21 10.45,1.62 15.1,1.62l226.45 0c12.96,0 20.07,-2.05 27.59,-7.95 5.44,-4.27 12.13,-14.13 12.13,-23.41l0 -190.21c0,-12.3 -11.44,-26.57 -22.99,-29.26 0,-16.83 2.28,-39.27 -3.47,-50.88 -3,-6.05 -6.85,-10.75 -13.02,-14.15 -6.53,-3.61 -12.73,-4.65 -22.53,-4.65l-256.41 0c-12.43,0 -19.57,1.85 -26.59,7.55 -5.3,4.3 -11.73,13.07 -11.73,22.41z"/>
   <path class="fil1" d="M434.49 264.77c0,9.37 7.73,16.72 13.93,16.72l4.18 0c7.88,0 14.63,-7.3 14.63,-17.42 0,-7.94 -8.12,-15.33 -16.03,-15.33 -8.53,0 -16.72,7.71 -16.72,16.03z"/>
  </g>
  <path class="fil2" d="M70.64 282.27c39.01,0 70.64,31.62 70.64,70.64 0,39.01 -31.62,70.64 -70.64,70.64 -39.01,0 -70.64,-31.62 -70.64,-70.64 0,-39.01 31.62,-70.64 70.64,-70.64z"/>
 </g>
</svg>
