<?xml version="1.0" encoding="UTF-8"?>
<!DOCTYPE svg PUBLIC "-//W3C//DTD SVG 1.1//EN" "http://www.w3.org/Graphics/SVG/1.1/DTD/svg11.dtd">
<!-- Creator: CorelDRAW 2020 (64-Bit) -->
<svg xmlns="http://www.w3.org/2000/svg" xml:space="preserve" width="1.18169in" height="0.692921in" version="1.1" style="shape-rendering:geometricPrecision; text-rendering:geometricPrecision; image-rendering:optimizeQuality; fill-rule:evenodd; clip-rule:evenodd"
viewBox="0 0 42.88 25.15"
 xmlns:xlink="http://www.w3.org/1999/xlink"
 xmlns:xodm="http://www.corel.com/coreldraw/odm/2003">
 <defs>
  <style type="text/css">
   <![CDATA[
    .fil2 {fill:#4BD3A5}
    .fil0 {fill:#E6E6E6}
    .fil1 {fill:white}
   ]]>
  </style>
 </defs>
 <rect class="fil0" x="-740.96" y="-110.26" width="300.03" height="424.32"/>
 <g id="Layer_x0020_1">
  <metadata id="CorelCorpID_0Corel-Layer"/>
  <path class="fil1" d="M42.88 17.62l0 1.95c0,0.14 -0.06,0.26 -0.15,0.35 -0.09,0.09 -0.21,0.15 -0.35,0.15l-0.08 0c-0.14,0 -0.26,-0.06 -0.35,-0.15 -0.09,-0.09 -0.15,-0.21 -0.15,-0.35l0 -1.95c-0,-0.76 -0.27,-1.41 -0.81,-1.94 -0.27,-0.27 -0.57,-0.47 -0.89,-0.61 -0.32,-0.13 -0.67,-0.2 -1.06,-0.2 -0.38,0 -0.73,0.07 -1.06,0.2 -0.32,0.13 -0.62,0.34 -0.89,0.61 -0.54,0.54 -0.81,1.19 -0.81,1.94l0 3.69c0,0.76 0.27,1.41 0.81,1.94 0.54,0.54 1.19,0.81 1.95,0.81 0.38,0 0.73,-0.07 1.06,-0.2 0.32,-0.13 0.62,-0.34 0.89,-0.61 0.27,-0.27 0.47,-0.56 0.6,-0.88 0.13,-0.32 0.2,-0.67 0.2,-1.05l-0 -0.11c0,-0.14 0.06,-0.26 0.15,-0.35 0.09,-0.09 0.22,-0.15 0.35,-0.15l0.08 0c0.14,0 0.26,0.06 0.35,0.15 0.09,0.09 0.15,0.22 0.15,0.35l0 0.1c0,0.53 -0.09,1.02 -0.28,1.48 -0.19,0.45 -0.47,0.87 -0.85,1.24 -0.38,0.37 -0.79,0.65 -1.24,0.84 -0.45,0.19 -0.94,0.28 -1.46,0.28 -1.05,0 -1.95,-0.37 -2.7,-1.12 -0.38,-0.37 -0.66,-0.79 -0.85,-1.24 -0.19,-0.45 -0.28,-0.95 -0.28,-1.48l0 -3.69c0,-0.52 0.09,-1.01 0.28,-1.46 0.19,-0.45 0.47,-0.87 0.85,-1.24 0.38,-0.38 0.79,-0.66 1.24,-0.85 0.45,-0.19 0.94,-0.28 1.46,-0.28 1.05,0 1.95,0.38 2.7,1.13 0.38,0.38 0.66,0.79 0.85,1.24 0.19,0.45 0.28,0.94 0.28,1.46zm-19.44 3.59l0 3.25c0,0.14 0.06,0.26 0.15,0.35 0.09,0.09 0.21,0.15 0.35,0.15l0.08 0c0.14,0 0.26,-0.06 0.35,-0.15 0.09,-0.09 0.15,-0.21 0.15,-0.35l0 -3.25c0,-0.14 -0.06,-0.26 -0.15,-0.35 -0.09,-0.09 -0.22,-0.15 -0.35,-0.15l-0.08 0c-0.14,0 -0.26,0.06 -0.35,0.15 -0.09,0.09 -0.15,0.22 -0.15,0.35zm0 -6.93l0 5.28c0,0.14 0.06,0.26 0.15,0.35 0.09,0.09 0.21,0.15 0.35,0.15l0.08 0c0.14,0 0.26,-0.06 0.35,-0.15 0.09,-0.09 0.15,-0.21 0.15,-0.35l0 -5.28c0,-0.14 -0.06,-0.26 -0.15,-0.35 -0.09,-0.09 -0.22,-0.15 -0.35,-0.15l-0.08 0c-0.14,0 -0.26,0.06 -0.35,0.15 -0.09,0.09 -0.15,0.21 -0.15,0.35zm9.74 6.43l0.08 0c0.14,0 0.26,0.06 0.35,0.15 0.09,0.09 0.15,0.22 0.15,0.35l0 3.25c0,0.14 -0.06,0.26 -0.15,0.35 -0.09,0.09 -0.22,0.15 -0.35,0.15l-0.08 0c-0.14,0 -0.26,-0.06 -0.35,-0.15 -0.09,-0.09 -0.15,-0.22 -0.15,-0.35l0 -3.25c0,-0.14 0.06,-0.26 0.15,-0.35 0.09,-0.09 0.21,-0.15 0.35,-0.15zm-11.9 0l0.08 0c0.14,0 0.26,0.06 0.35,0.15 0.09,0.09 0.15,0.22 0.15,0.35l0 3.25c0,0.14 -0.06,0.26 -0.15,0.35 -0.09,0.09 -0.22,0.15 -0.35,0.15l-0.08 0c-0.14,0 -0.26,-0.06 -0.35,-0.15 -0.09,-0.09 -0.15,-0.22 -0.15,-0.35l0 -3.25c0,-0.14 0.06,-0.26 0.15,-0.35 0.09,-0.09 0.21,-0.15 0.35,-0.15zm-9.22 0l0.08 0c0.14,0 0.26,0.06 0.35,0.15 0.09,0.09 0.15,0.22 0.15,0.35l0 3.25c0,0.14 -0.06,0.26 -0.15,0.35 -0.09,0.09 -0.21,0.15 -0.35,0.15l-0.08 0c-0.14,0 -0.26,-0.06 -0.35,-0.15 -0.09,-0.09 -0.15,-0.21 -0.15,-0.35l0 -3.25c0,-0.14 0.06,-0.26 0.15,-0.35 0.09,-0.09 0.22,-0.15 0.35,-0.15zm0.58 -3.49l0 2.31c0,0.08 -0.01,0.15 -0.04,0.22 -0.03,0.07 -0.07,0.13 -0.12,0.18 -0.05,0.05 -0.11,0.08 -0.17,0.11 -0.06,0.03 -0.13,0.04 -0.2,0.04 -0.07,0 -0.14,-0.01 -0.2,-0.04 -0.06,-0.02 -0.12,-0.06 -0.17,-0.11 -0.05,-0.05 -0.1,-0.11 -0.12,-0.18 -0.03,-0.07 -0.04,-0.14 -0.04,-0.22l0 -2.31c0,-0.33 -0.06,-0.63 -0.17,-0.91 -0.11,-0.28 -0.29,-0.53 -0.52,-0.76 -0.23,-0.23 -0.48,-0.4 -0.76,-0.52 -0.28,-0.11 -0.58,-0.17 -0.91,-0.17 -0.33,0 -0.63,0.06 -0.91,0.17 -0.28,0.11 -0.53,0.29 -0.76,0.52 -0.46,0.46 -0.69,1.01 -0.69,1.67l0 7.18c0,0.18 -0.05,0.31 -0.14,0.41 -0.09,0.1 -0.23,0.15 -0.4,0.15 -0.36,0 -0.54,-0.19 -0.54,-0.56l0 -7.18c0,-0.65 -0.23,-1.21 -0.69,-1.67 -0.23,-0.23 -0.48,-0.4 -0.76,-0.52 -0.28,-0.11 -0.58,-0.17 -0.91,-0.17 -0.33,0 -0.63,0.06 -0.91,0.17 -0.28,0.11 -0.53,0.29 -0.76,0.52 -0.23,0.23 -0.4,0.48 -0.52,0.76 -0.11,0.28 -0.17,0.58 -0.17,0.91l0 7.18c0,0.16 -0.06,0.29 -0.17,0.39 -0.05,0.05 -0.11,0.09 -0.17,0.11 -0.06,0.02 -0.13,0.04 -0.2,0.04 -0.07,0 -0.14,-0.01 -0.2,-0.04 -0.06,-0.02 -0.12,-0.06 -0.17,-0.11 -0.06,-0.05 -0.1,-0.11 -0.12,-0.18 -0.03,-0.07 -0.04,-0.14 -0.04,-0.22l0 -7.18c0,-0.94 0.34,-1.75 1.01,-2.42 0.34,-0.34 0.71,-0.59 1.11,-0.76 0.41,-0.17 0.84,-0.25 1.31,-0.25 0.32,0 0.62,0.04 0.92,0.12 0.3,0.08 0.58,0.2 0.85,0.37 0.27,0.16 0.51,0.35 0.72,0.57 0.15,0.16 0.29,0.33 0.41,0.52 0.12,-0.19 0.25,-0.36 0.41,-0.52 0.21,-0.22 0.45,-0.41 0.72,-0.57 0.27,-0.16 0.55,-0.28 0.85,-0.37 0.3,-0.08 0.6,-0.12 0.92,-0.12 0.94,0 1.75,0.34 2.42,1.01 0.34,0.33 0.59,0.71 0.76,1.11 0.17,0.41 0.25,0.84 0.25,1.31zm9.22 0.4l0 1.91c0,0.08 -0.01,0.15 -0.04,0.22 -0.03,0.07 -0.07,0.13 -0.12,0.18 -0.05,0.05 -0.11,0.08 -0.17,0.11 -0.06,0.03 -0.13,0.04 -0.2,0.04 -0.07,0 -0.14,-0.01 -0.2,-0.04 -0.06,-0.02 -0.12,-0.06 -0.17,-0.11 -0.06,-0.05 -0.1,-0.11 -0.12,-0.18 -0.03,-0.07 -0.04,-0.14 -0.04,-0.22l0 -1.91c0,-0.76 -0.27,-1.41 -0.81,-1.94 -0.27,-0.27 -0.57,-0.47 -0.89,-0.61 -0.32,-0.13 -0.67,-0.2 -1.06,-0.2 -0.38,0 -0.73,0.07 -1.06,0.2 -0.32,0.13 -0.62,0.34 -0.89,0.61 -0.27,0.27 -0.47,0.57 -0.61,0.89 -0.13,0.32 -0.2,0.67 -0.2,1.06l0 6.78c0,0.08 -0.01,0.15 -0.04,0.22 -0.03,0.07 -0.07,0.13 -0.12,0.18 -0.05,0.05 -0.11,0.09 -0.17,0.11 -0.06,0.02 -0.13,0.04 -0.2,0.04 -0.07,0 -0.14,-0.01 -0.2,-0.04 -0.06,-0.02 -0.12,-0.06 -0.17,-0.11 -0.06,-0.05 -0.1,-0.11 -0.12,-0.18 -0.03,-0.07 -0.04,-0.14 -0.04,-0.22l0 -14.36c0,-0.08 0.01,-0.15 0.04,-0.22 0.03,-0.07 0.07,-0.13 0.13,-0.18 0.05,-0.05 0.11,-0.09 0.17,-0.11 0.06,-0.02 0.13,-0.04 0.2,-0.04 0.14,0 0.27,0.05 0.37,0.15 0.06,0.05 0.1,0.11 0.12,0.18 0.03,0.07 0.04,0.14 0.04,0.22l0 4.9c0.32,-0.34 0.67,-0.6 1.07,-0.79 0.5,-0.24 1.06,-0.36 1.68,-0.36 0.53,0 1.02,0.09 1.48,0.28 0.45,0.19 0.87,0.47 1.24,0.85 0.37,0.38 0.65,0.79 0.84,1.24 0.19,0.45 0.28,0.94 0.28,1.46zm11.9 0l0 1.93c0,0.08 -0.01,0.15 -0.04,0.22 -0.03,0.07 -0.07,0.13 -0.12,0.18 -0.05,0.05 -0.11,0.09 -0.17,0.11 -0.06,0.02 -0.13,0.04 -0.2,0.04 -0.07,0 -0.14,-0.01 -0.2,-0.04 -0.06,-0.03 -0.12,-0.06 -0.17,-0.11 -0.05,-0.05 -0.1,-0.11 -0.12,-0.18 -0.03,-0.07 -0.04,-0.14 -0.04,-0.22l0 -1.93c0,-0.38 -0.07,-0.73 -0.2,-1.06 -0.13,-0.32 -0.34,-0.62 -0.61,-0.89 -0.27,-0.27 -0.57,-0.47 -0.89,-0.61 -0.32,-0.13 -0.67,-0.2 -1.06,-0.2 -0.38,0 -0.73,0.07 -1.06,0.2 -0.32,0.13 -0.62,0.34 -0.89,0.61 -0.27,0.27 -0.47,0.57 -0.61,0.89 -0.13,0.32 -0.2,0.67 -0.2,1.06l0 6.78c0,0.08 -0.01,0.15 -0.04,0.22 -0.03,0.07 -0.07,0.13 -0.12,0.18 -0.05,0.05 -0.11,0.09 -0.17,0.11 -0.06,0.02 -0.13,0.04 -0.2,0.04 -0.07,0 -0.14,-0.01 -0.2,-0.04 -0.06,-0.02 -0.12,-0.06 -0.17,-0.11 -0.06,-0.05 -0.1,-0.11 -0.12,-0.18 -0.03,-0.07 -0.04,-0.14 -0.04,-0.22l0 -6.78c0,-1.05 0.37,-1.95 1.12,-2.7 0.37,-0.38 0.79,-0.66 1.24,-0.85 0.45,-0.19 0.94,-0.28 1.48,-0.28 1.06,0 1.97,0.38 2.71,1.13 0.37,0.38 0.65,0.79 0.84,1.24 0.19,0.45 0.28,0.94 0.28,1.46z"/>
  <path class="fil2" d="M23.98 0l0 0c0.3,0 0.55,0.25 0.55,0.55l0 3.31c0,0.3 -0.25,0.55 -0.55,0.55l-0 0c-0.3,0 -0.55,-0.25 -0.55,-0.55l0 -3.31c0,-0.3 0.25,-0.55 0.55,-0.55zm0 8.21l0 0c0.3,0 0.55,0.25 0.55,0.55l0 3.31c0,0.3 -0.25,0.55 -0.55,0.55l-0 0c-0.3,0 -0.55,-0.25 -0.55,-0.55l0 -3.31c0,-0.3 0.25,-0.55 0.55,-0.55zm0 3.93l-0 0c-0.07,0 -0.12,-0.06 -0.12,-0.12l0 -3.2c0,-0.07 0.06,-0.12 0.12,-0.12l0 0c0.07,0 0.12,0.06 0.12,0.12l0 3.2c0,0.07 -0.06,0.12 -0.12,0.12zm-1.66 -9.93l0 0c0.3,0 0.55,0.25 0.55,0.55l0 1.1c0,0.3 -0.25,0.55 -0.55,0.55l0 0c-0.3,0 -0.55,-0.25 -0.55,-0.55l0 -1.1c0,-0.3 0.25,-0.55 0.55,-0.55zm0 1.72l0 0c-0.07,0 -0.12,-0.06 -0.12,-0.12l0 -0.99c0,-0.07 0.06,-0.12 0.12,-0.12l0 0c0.07,0 0.12,0.06 0.12,0.12l0 0.99c0,0.07 -0.06,0.12 -0.12,0.12zm3.31 -1.72l0 0c0.3,0 0.55,0.25 0.55,0.55l0 1.1c0,0.3 -0.25,0.55 -0.55,0.55l0 0c-0.3,0 -0.55,-0.25 -0.55,-0.55l0 -1.1c0,-0.3 0.25,-0.55 0.55,-0.55zm0 1.72l-0 0c-0.07,0 -0.12,-0.06 -0.12,-0.12l0 -0.99c0,-0.07 0.06,-0.12 0.12,-0.12l0 0c0.07,0 0.12,0.06 0.12,0.12l0 0.99c0,0.07 -0.06,0.12 -0.12,0.12zm-7.97 1.55l0 -0c0,-0.3 0.25,-0.55 0.55,-0.55l3.31 0c0.3,0 0.55,0.25 0.55,0.55l0 0c0,0.3 -0.25,0.55 -0.55,0.55l-3.31 0c-0.3,0 -0.55,-0.25 -0.55,-0.55zm3.93 -0l0 0c0,0.07 -0.06,0.12 -0.12,0.12l-3.2 0c-0.07,0 -0.12,-0.06 -0.12,-0.12l0 -0c0,-0.07 0.06,-0.12 0.12,-0.12l3.2 0c0.07,0 0.12,0.06 0.12,0.12zm0.73 4.93l0 0c0.3,0 0.55,-0.25 0.55,-0.55l0 -1.1c0,-0.3 -0.25,-0.55 -0.55,-0.55l-0 0c-0.3,0 -0.55,0.25 -0.55,0.55l0 1.1c0,0.3 0.25,0.55 0.55,0.55zm3.31 0l0 0c0.3,0 0.55,-0.25 0.55,-0.55l0 -1.1c0,-0.3 -0.25,-0.55 -0.55,-0.55l-0 0c-0.3,0 -0.55,0.25 -0.55,0.55l0 1.1c0,0.3 0.25,0.55 0.55,0.55zm-1.27 -4.5c0.22,0.22 0.22,0.56 0,0.78 -0.22,0.22 -0.56,0.22 -0.78,0 -0.22,-0.22 -0.22,-0.56 0,-0.78 0.22,-0.22 0.56,-0.22 0.78,0zm-6.7 1.22l0 0c0,-0.3 0.25,-0.55 0.55,-0.55l3.31 0c0.3,0 0.55,0.25 0.55,0.55l0 0c0,0.3 -0.25,0.55 -0.55,0.55l-3.31 0c-0.3,0 -0.55,-0.25 -0.55,-0.55zm3.93 0l0 0c0,0.07 -0.06,0.12 -0.12,0.12l-3.2 0c-0.07,0 -0.12,-0.06 -0.12,-0.12l0 -0c0,-0.07 0.06,-0.12 0.12,-0.12l3.2 0c0.07,0 0.12,0.06 0.12,0.12zm8.7 -0l0 0c0,0.3 -0.25,0.55 -0.55,0.55l-3.31 0c-0.3,0 -0.55,-0.25 -0.55,-0.55l0 -0c0,-0.3 0.25,-0.55 0.55,-0.55l3.31 0c0.3,0 0.55,0.25 0.55,0.55zm0 -1.66l0 0c0,0.3 -0.25,0.55 -0.55,0.55l-3.31 0c-0.3,0 -0.55,-0.25 -0.55,-0.55l0 0c0,-0.3 0.25,-0.55 0.55,-0.55l3.31 0c0.3,0 0.55,0.25 0.55,0.55zm-0.49 0l0 0c0,0.07 -0.06,0.12 -0.12,0.12l-3.2 0c-0.07,0 -0.12,-0.06 -0.12,-0.12l0 -0c0,-0.07 0.06,-0.12 0.12,-0.12l3.2 0c0.07,0 0.12,0.06 0.12,0.12z"/>
 </g>
</svg>
